D:\school\WTK\thesis\model\3dpredictsim\Results\Batchsim_tmt_linear\Pog_s1_tmt_bCst_d00_k500_ig24_pas_GRF.mot
nRows=10
nColumns=19

name D:\school\WTK\thesis\model\3dpredictsim\Results\Batchsim_tmt_linear\Pog_s1_tmt_bCst_d00_k500_ig24_pas_GRF.mot
datacolumns 19
datarows 10
range 0.0000000000 0.1006704466
endheader
time 	ground_force_vx	ground_force_vy	ground_force_vz	ground_force_px	ground_force_py	ground_force_pz	1_ground_force_vx	1_ground_force_vy	1_ground_force_vz	1_ground_force_px	1_ground_force_py	1_ground_force_pz	ground_torque_x	ground_torque_y	ground_torque_z	1_ground_torque_x	1_ground_torque_y	1_ground_torque_z
        0.0000000000	      -88.9003646825	       90.8288752494	       52.1884067004	        0.1668982144	        0.0000000000	        0.0361332310	       90.0574409752	      426.4726421521	       -6.3953419087	       -0.3274828346	        0.0000000000	       -0.0307833203	        0.0000000000	        0.0000000000	        0.0000000000	        0.0000000000	        0.0000000000	        0.0000000000	
        0.0111856052	      -89.5913748934	      194.6897611491	       87.7865848402	        0.1724082496	        0.0000000000	        0.0339752028	       69.7671626883	      340.2528113362	      -13.3283211481	       -0.3222363498	        0.0000000000	       -0.0290158414	        0.0000000000	        0.0000000000	        0.0000000000	        0.0000000000	        0.0000000000	        0.0000000000	
        0.0223712104	      -54.4889229657	      370.2615657962	       20.8149305206	        0.1765389706	        0.0000000000	        0.0320187523	       37.4147615114	      228.7686705763	      -10.0066298481	       -0.3114355237	        0.0000000000	       -0.0241124668	        0.0000000000	        0.0000000000	        0.0000000000	        0.0000000000	        0.0000000000	        0.0000000000	
        0.0335568155	      -59.7524959792	      575.9873454987	       -3.8032594927	        0.1833541513	        0.0000000000	        0.0333786535	       15.2055158910	      145.1393291978	       -9.2850144517	       -0.2941295044	        0.0000000000	       -0.0149972100	        0.0000000000	        0.0000000000	        0.0000000000	        0.0000000000	        0.0000000000	        0.0000000000	
        0.0447424207	      -96.7949536161	      770.6373506787	      -11.2494384656	        0.1912351902	        0.0000000000	        0.0357229543	        1.8196556218	      117.5120022983	      -10.8487295175	       -0.2937992894	        0.0000000000	       -0.0147606311	        0.0000000000	        0.0000000000	        0.0000000000	        0.0000000000	        0.0000000000	        0.0000000000	
        0.0559280259	     -117.9777854622	      871.8731405788	      -13.9948101401	        0.1963933881	        0.0000000000	        0.0371310194	       -1.6786629566	       77.9119937623	       -9.6703414736	       -0.2932864971	        0.0000000000	       -0.0147861624	        0.0000000000	        0.0000000000	        0.0000000000	        0.0000000000	        0.0000000000	        0.0000000000	
        0.0671136311	     -120.2111681694	      894.1032626052	      -14.5593838767	        0.1999342355	        0.0000000000	        0.0379290584	       -7.6804058142	       32.6992355977	       -5.8284322623	       -0.2934991210	        0.0000000000	       -0.0147588995	        0.0000000000	        0.0000000000	        0.0000000000	        0.0000000000	        0.0000000000	        0.0000000000	
        0.0782992362	     -112.1565022562	      875.9921322011	      -14.5533220352	        0.2029721062	        0.0000000000	        0.0383593522	        0.0821086203	       -0.0823231576	        0.0022832702	        0.0000000000	        0.0000000000	        0.0000000000	        0.0000000000	        0.0000000000	        0.0000000000	        0.0000000000	        0.0000000000	        0.0000000000	
        0.0894848414	      -99.6309617809	      840.2620697425	      -14.9989503908	        0.2061769698	        0.0000000000	        0.0385352602	        0.0000446161	       -0.0000366798	       -0.0000025502	        0.0000000000	        0.0000000000	        0.0000000000	        0.0000000000	        0.0000000000	        0.0000000000	        0.0000000000	        0.0000000000	        0.0000000000	
        0.1006704466	      -86.1724840845	      795.4569224729	      -14.9948755527	        0.2094779638	        0.0000000000	        0.0386007266	        0.0000204060	       -0.0000146468	       -0.0000015107	        0.0000000000	        0.0000000000	        0.0000000000	        0.0000000000	        0.0000000000	        0.0000000000	        0.0000000000	        0.0000000000	        0.0000000000	
